<svg width="108" height="105" viewBox="0 0 108 105" fill="none" xmlns="http://www.w3.org/2000/svg"><path d="M89.0018 47.0476C89.0018 65.4541 87.4947 86.1091 68.9344 86.1091C50.3741 86.1091 13.0018 69.7 13.0018 51.2934C13.0018 32.8869 42.3582 10.1091 60.9185 10.1091C79.4788 10.1091 89.0018 28.6411 89.0018 47.0476Z" fill="#6D8DFF"></path><path d="M79.4466 28.5507C92.7051 38.2343 99.594 43.1329 94.1587 61.0694C89.8881 75.1623 53.965 94.6682 40.7065 84.9847C27.4479 75.3011 16.318 32.9118 25.7686 19.9722C35.2193 7.03254 67.434 19.7772 79.4466 28.5507Z" fill="#FCFF6D"></path><path d="M31.3112 23.0611C44.3819 8.91625 56.8435 4.17526 68.0382 14.5199C79.2329 24.8645 102.462 55.8928 89.3913 70.0376C76.3205 84.1824 35.3365 83.2524 24.1418 72.9078C12.9471 62.5632 18.2404 37.2059 31.3112 23.0611Z" fill="#FF6DE8"></path><path d="M25.4052 30.9409C32.3408 13.791 50.1957 12.9156 66.1702 19.3759C82.1447 25.8361 96.7003 41.0309 89.7647 58.1809C82.8292 75.3308 53.1464 84.9945 37.1719 78.5343C21.1974 72.074 18.4696 48.0909 25.4052 30.9409Z" fill="white"></path><path d="M36.54 40V34.2H43.52C43.7867 34.2 44.03 34.2667 44.25 34.4C44.47 34.5333 44.6433 34.71 44.77 34.93C44.9033 35.15 44.97 35.39 44.97 35.65V40H43.45V35.73H41.53V40H39.99V35.73H38.07V40H36.54ZM47.335 40C47.075 40 46.835 39.9333 46.615 39.8C46.395 39.6667 46.2183 39.49 46.085 39.27C45.9517 39.05 45.885 38.81 45.885 38.55V35.65C45.885 35.39 45.9517 35.15 46.085 34.93C46.2183 34.71 46.395 34.5333 46.615 34.4C46.835 34.2667 47.075 34.2 47.335 34.2H50.315C50.5817 34.2 50.825 34.2667 51.045 34.4C51.265 34.5333 51.4383 34.71 51.565 34.93C51.6983 35.15 51.765 35.39 51.765 35.65V37.87H47.415V38.47H51.765V40H47.335ZM47.415 36.53H50.235V35.73H47.415V36.53ZM52.8388 40V34.2H59.8188C60.0855 34.2 60.3288 34.2667 60.5488 34.4C60.7688 34.5333 60.9422 34.71 61.0688 34.93C61.2022 35.15 61.2688 35.39 61.2688 35.65V40H59.7488V35.73H57.8288V40H56.2888V35.73H54.3688V40H52.8388ZM64.0342 40C63.7742 40 63.5342 39.9333 63.3142 39.8C63.0942 39.6667 62.9176 39.49 62.7842 39.27C62.6509 39.05 62.5842 38.81 62.5842 38.55V35.65C62.5842 35.39 62.6509 35.15 62.7842 34.93C62.9176 34.71 63.0942 34.5333 63.3142 34.4C63.5342 34.2667 63.7742 34.2 64.0342 34.2H67.0142C67.2809 34.2 67.5242 34.2667 67.7442 34.4C67.9642 34.5333 68.1376 34.71 68.2642 34.93C68.3976 35.15 68.4642 35.39 68.4642 35.65V38.55C68.4642 38.81 68.3976 39.05 68.2642 39.27C68.1376 39.49 67.9642 39.6667 67.7442 39.8C67.5242 39.9333 67.2809 40 67.0142 40H64.0342ZM64.1142 38.47H66.9342V35.73H64.1142V38.47Z" fill="#3D5093"></path><path d="M35.296 53.776V50.08H38.968V53.776H35.296ZM35.296 64V60.328H38.968V64H35.296ZM54.6897 64L49.6737 58.024H54.5457L58.5297 62.728V64H54.6897ZM41.2737 64V46.744H54.9777C55.6337 46.744 56.2257 46.904 56.7537 47.224C57.2977 47.544 57.7297 47.976 58.0497 48.52C58.3857 49.064 58.5537 49.656 58.5537 50.296V54.76C58.5537 55.4 58.3857 55.992 58.0497 56.536C57.7297 57.08 57.2977 57.512 56.7537 57.832C56.2257 58.152 55.6337 58.312 54.9777 58.312L44.9937 58.336V64H41.2737ZM44.9937 54.568H54.7857V50.464H44.9937V54.568ZM64.4384 64C63.8144 64 63.2384 63.84 62.7104 63.52C62.1824 63.2 61.7584 62.776 61.4384 62.248C61.1184 61.72 60.9584 61.144 60.9584 60.52V53.56C60.9584 52.936 61.1184 52.36 61.4384 51.832C61.7584 51.304 62.1824 50.88 62.7104 50.56C63.2384 50.24 63.8144 50.08 64.4384 50.08H71.5904C72.2304 50.08 72.8144 50.24 73.3424 50.56C73.8704 50.88 74.2864 51.304 74.5904 51.832C74.9104 52.36 75.0704 52.936 75.0704 53.56V58.888H64.6304V60.328H75.0704V64H64.4384ZM64.6304 55.672H71.3984V53.752H64.6304V55.672Z" fill="#FF30B9"></path><line x1="33" y1="43" x2="79" y2="43" stroke="#3D5093" stroke-width="2"></line><path d="M82.9681 43.8464L72.7859 48.9673L72.7304 38.8411L82.9681 43.8464Z" fill="#3D5093"></path><rect x="83" y="43.9999" width="5.99999" height="12" transform="rotate(90 83 43.9999)" fill="white"></rect></svg>